<?xml version="1.0" encoding="UTF-8" standalone="no"?>
<!-- Created with Inkscape (http://www.inkscape.org/) -->

<svg
   width="800"
   height="800"
   viewBox="0 0 211.66667 211.66667"
   version="1.1"
   id="svg1"
   inkscape:version="1.3 (0e150ed6c4, 2023-07-21)"
   sodipodi:docname="notfound.svg"
   xmlns:inkscape="http://www.inkscape.org/namespaces/inkscape"
   xmlns:sodipodi="http://sodipodi.sourceforge.net/DTD/sodipodi-0.dtd"
   xmlns="http://www.w3.org/2000/svg"
   xmlns:svg="http://www.w3.org/2000/svg">
  <sodipodi:namedview
     id="namedview1"
     pagecolor="#ffffff"
     bordercolor="#000000"
     borderopacity="0.25"
     inkscape:showpageshadow="2"
     inkscape:pageopacity="0.0"
     inkscape:pagecheckerboard="0"
     inkscape:deskcolor="#d1d1d1"
     inkscape:document-units="mm"
     inkscape:zoom="0.89449801"
     inkscape:cx="458.35764"
     inkscape:cy="401.34242"
     inkscape:window-width="1500"
     inkscape:window-height="948"
     inkscape:window-x="-6"
     inkscape:window-y="-6"
     inkscape:window-maximized="1"
     inkscape:current-layer="layer1" />
  <defs
     id="defs1" />
  <g
     inkscape:label="Layer 1"
     inkscape:groupmode="layer"
     id="layer1">
    <path
       d="m 105.83332,39.589711 a 66.243624,66.243624 0 0 0 -5.77354,0.251517 66.243624,66.243624 0 0 0 -5.729035,0.754558 66.243624,66.243624 0 0 0 -5.642091,1.251383 66.243624,66.243624 0 0 0 -5.511676,1.737859 66.243624,66.243624 0 0 0 -5.338821,2.210882 66.243624,66.243624 0 0 0 -5.126636,2.668375 66.243624,66.243624 0 0 0 -4.874081,3.10517 66.243624,66.243624 0 0 0 -4.584266,3.518157 66.243624,66.243624 0 0 0 -4.261328,3.904234 66.243624,66.243624 0 0 0 -3.904234,4.261328 66.243624,66.243624 0 0 0 -3.518157,4.584266 66.243624,66.243624 0 0 0 -3.10517,4.874081 66.243624,66.243624 0 0 0 -2.668375,5.126636 66.243624,66.243624 0 0 0 -2.210882,5.338821 66.243624,66.243624 0 0 0 -1.737859,5.511676 66.243624,66.243624 0 0 0 -1.251383,5.642091 66.243624,66.243624 0 0 0 -0.754558,5.729035 66.243624,66.243624 0 0 0 -0.251517,5.77354 66.243624,66.243624 0 0 0 0.251517,5.77355 66.243624,66.243624 0 0 0 0.754558,5.73008 66.243624,66.243624 0 0 0 1.251383,5.64209 66.243624,66.243624 0 0 0 1.737859,5.51065 66.243624,66.243624 0 0 0 2.210882,5.33882 66.243624,66.243624 0 0 0 2.668375,5.12663 66.243624,66.243624 0 0 0 3.10517,4.87407 66.243624,66.243624 0 0 0 3.518157,4.58427 66.243624,66.243624 0 0 0 3.904234,4.26133 66.243624,66.243624 0 0 0 4.261328,3.90425 66.243624,66.243624 0 0 0 4.584266,3.51815 66.243624,66.243624 0 0 0 4.874081,3.10516 66.243624,66.243624 0 0 0 5.126636,2.66838 66.243624,66.243624 0 0 0 5.338821,2.21089 66.243624,66.243624 0 0 0 5.511676,1.73786 66.243624,66.243624 0 0 0 5.642091,1.25139 66.243624,66.243624 0 0 0 5.729035,0.75455 66.243624,66.243624 0 0 0 5.77354,0.25151 66.243624,66.243624 0 0 0 5.77355,-0.25151 66.243624,66.243624 0 0 0 5.73008,-0.75455 66.243624,66.243624 0 0 0 5.64209,-1.25139 66.243624,66.243624 0 0 0 5.51065,-1.73786 66.243624,66.243624 0 0 0 5.33882,-2.21089 66.243624,66.243624 0 0 0 5.12663,-2.66838 66.243624,66.243624 0 0 0 4.87407,-3.10516 66.243624,66.243624 0 0 0 4.58427,-3.51815 66.243624,66.243624 0 0 0 4.26133,-3.90425 66.243624,66.243624 0 0 0 3.90425,-4.26133 66.243624,66.243624 0 0 0 3.51815,-4.58427 66.243624,66.243624 0 0 0 3.10516,-4.87407 66.243624,66.243624 0 0 0 2.66838,-5.12663 66.243624,66.243624 0 0 0 2.21089,-5.33882 66.243624,66.243624 0 0 0 1.73786,-5.51065 66.243624,66.243624 0 0 0 1.25139,-5.64209 66.243624,66.243624 0 0 0 0.0487,-0.27739 66.243624,66.243624 0 0 0 0.0467,-0.27843 66.243624,66.243624 0 0 0 0.0465,-0.27843 66.243624,66.243624 0 0 0 0.0445,-0.27844 66.243624,66.243624 0 0 0 0.0435,-0.27843 66.243624,66.243624 0 0 0 0.0425,-0.27843 66.243624,66.243624 0 0 0 0.0415,-0.27947 66.243624,66.243624 0 0 0 0.0405,-0.27945 66.243624,66.243624 0 0 0 0.0383,-0.27843 66.243624,66.243624 0 0 0 0.0383,-0.27948 66.243624,66.243624 0 0 0 0.0363,-0.28049 66.243624,66.243624 0 0 0 0.0352,-0.27947 66.243624,66.243624 0 0 0 0.0341,-0.27946 66.243624,66.243624 0 0 0 0.0331,-0.28051 66.243624,66.243624 0 0 0 0.032,-0.28049 66.243624,66.243624 0 0 0 0.03,-0.2805 66.243624,66.243624 0 0 0 0.029,-0.27947 66.243624,66.243624 0 0 0 0.0291,-0.28154 66.243624,66.243624 0 0 0 0.0268,-0.28049 66.243624,66.243624 0 0 0 0.0258,-0.28051 66.243624,66.243624 0 0 0 0.0238,-0.28154 66.243624,66.243624 0 0 0 0.0238,-0.28049 66.243624,66.243624 0 0 0 0.0218,-0.28154 66.243624,66.243624 0 0 0 0.0218,-0.28049 66.243624,66.243624 0 0 0 0.02,-0.28154 66.243624,66.243624 0 0 0 0.018,-0.28153 66.243624,66.243624 0 0 0 0.018,-0.28154 66.243624,66.243624 0 0 0 0.016,-0.28154 66.243624,66.243624 0 0 0 0.016,-0.28153 66.243624,66.243624 0 0 0 0.014,-0.28154 66.243624,66.243624 0 0 0 0.012,-0.28153 66.243624,66.243624 0 0 0 0.012,-0.28258 66.243624,66.243624 0 0 0 0.01,-0.28154 66.243624,66.243624 0 0 0 0.01,-0.28153 66.243624,66.243624 0 0 0 0.008,-0.28154 66.243624,66.243624 0 0 0 0.008,-0.28255 66.243624,66.243624 0 0 0 0.006,-0.28154 66.243624,66.243624 0 0 0 0.004,-0.28258 66.243624,66.243624 0 0 0 0.004,-0.28153 66.243624,66.243624 0 0 0 0.001,-0.28258 66.243624,66.243624 0 0 0 0.001,-0.28154 66.243624,66.243624 0 0 0 0,-0.0921 66.243624,66.243624 0 0 0 0,-0.0911 66.243624,66.243624 0 0 0 -0.001,-0.0921 66.243624,66.243624 0 0 0 0,-0.0921 66.243624,66.243624 0 0 0 -0.001,-0.0911 66.243624,66.243624 0 0 0 0,-0.0921 66.243624,66.243624 0 0 0 -0.001,-0.0921 66.243624,66.243624 0 0 0 -0.001,-0.0911 66.243624,66.243624 0 0 0 -10e-4,-0.0921 66.243624,66.243624 0 0 0 -0.001,-0.0911 66.243624,66.243624 0 0 0 -0.001,-0.0921 66.243624,66.243624 0 0 0 -0.002,-0.0921 66.243624,66.243624 0 0 0 -0.001,-0.0911 66.243624,66.243624 0 0 0 -0.002,-0.0921 66.243624,66.243624 0 0 0 -0.002,-0.0921 66.243624,66.243624 0 0 0 -0.002,-0.0911 66.243624,66.243624 0 0 0 -0.002,-0.0921 66.243624,66.243624 0 0 0 -0.002,-0.0911 66.243624,66.243624 0 0 0 -0.002,-0.0921 66.243624,66.243624 0 0 0 -0.002,-0.0921 66.243624,66.243624 0 0 0 -0.004,-0.0911 66.243624,66.243624 0 0 0 -0.004,-0.0921 66.243624,66.243624 0 0 0 -0.002,-0.0911 66.243624,66.243624 0 0 0 -0.004,-0.0921 66.243624,66.243624 0 0 0 -0.004,-0.0921 66.243624,66.243624 0 0 0 -0.004,-0.0911 66.243624,66.243624 0 0 0 -0.004,-0.0921 66.243624,66.243624 0 0 0 -0.004,-0.0911 66.243624,66.243624 0 0 0 -0.004,-0.0921 66.243624,66.243624 0 0 0 -0.004,-0.0921 66.243624,66.243624 0 0 0 -0.004,-0.0911 66.243624,66.243624 0 0 0 -0.004,-0.0921 66.243624,66.243624 0 0 0 -0.004,-0.0911 66.243624,66.243624 0 0 0 -0.004,-0.0921 66.243624,66.243624 0 0 0 -0.004,-0.0911 66.243624,66.243624 0 0 0 -0.004,-0.0921 66.243624,66.243624 0 0 0 -0.006,-0.0911 66.243624,66.243624 0 0 0 -0.004,-0.0921 66.243624,66.243624 0 0 0 -0.006,-0.0911 66.243624,66.243624 0 0 0 -0.006,-0.0921 66.243624,66.243624 0 0 0 -0.006,-0.0921 66.243624,66.243624 0 0 0 -0.006,-0.0911 66.243624,66.243624 0 0 0 -0.33639,-3.839029 66.243624,66.243624 0 0 0 -0.55789,-3.812108 66.243624,66.243624 0 0 0 -0.77941,-3.773813 66.243624,66.243624 0 0 0 -0.99779,-3.722064 66.243624,66.243624 0 0 0 -1.21205,-3.65789 66.243624,66.243624 0 0 0 -1.42216,-3.581295 66.243624,66.243624 0 0 0 -1.62814,-3.492281 66.243624,66.243624 0 0 0 -1.82896,-3.391881 66.243624,66.243624 0 0 0 -2.02353,-3.280094 66.243624,66.243624 0 0 0 -2.20984,-3.155889 66.243624,66.243624 0 0 0 -2.38995,-3.022363 66.243624,66.243624 0 0 0 -2.56176,-2.878494 66.243624,66.243624 0 0 0 -2.7253,-2.725303 66.243624,66.243624 0 0 0 -2.87851,-2.561765 66.243624,66.243624 0 0 0 -3.02236,-2.389946 66.243624,66.243624 0 0 0 -3.15588,-2.209847 66.243624,66.243624 0 0 0 -3.28011,-2.023535 66.243624,66.243624 0 0 0 -3.39188,-1.82791 66.243624,66.243624 0 0 0 -3.49228,-1.629179 66.243624,66.243624 0 0 0 -3.58128,-1.422167 66.243624,66.243624 0 0 0 -3.6579,-1.212052 66.243624,66.243624 0 0 0 -3.72206,-0.997795 66.243624,66.243624 0 0 0 -3.77279,-0.779396 66.243624,66.243624 0 0 0 -3.81315,-0.557896 66.243624,66.243624 0 0 0 -3.83902,-0.336394 66.243624,66.243624 0 0 0 -3.85145,-0.111785 z m 0,13.248723 a 52.994899,52.994899 0 0 1 2.86918,0.07764 52.994899,52.994899 0 0 1 2.8609,0.232888 52.994899,52.994899 0 0 1 2.8433,0.388147 52.994899,52.994899 0 0 1 2.8195,0.540299 52.994899,52.994899 0 0 1 2.78429,0.692452 52.994899,52.994899 0 0 1 2.74395,0.842536 52.994899,52.994899 0 0 1 2.69424,0.989515 52.994899,52.994899 0 0 1 2.63629,1.134422 52.994899,52.994899 0 0 1 2.57212,1.275189 52.994899,52.994899 0 0 1 2.49759,1.412854 52.994899,52.994899 0 0 1 2.41893,1.545339 52.994899,52.994899 0 0 1 2.33096,1.674722 52.994899,52.994899 0 0 1 2.23674,1.797892 52.994899,52.994899 0 0 1 2.13637,1.916926 52.994899,52.994899 0 0 1 2.02974,2.029746 52.994899,52.994899 0 0 1 1.91693,2.136356 52.994899,52.994899 0 0 1 1.79789,2.236758 52.994899,52.994899 0 0 1 1.67472,2.330947 52.994899,52.994899 0 0 1 1.54534,2.418926 52.994899,52.994899 0 0 1 1.41284,2.498627 52.994899,52.994899 0 0 1 1.27521,2.571081 52.994899,52.994899 0 0 1 1.13441,2.63629 52.994899,52.994899 0 0 1 0.98952,2.694251 52.994899,52.994899 0 0 1 0.84252,2.743935 52.994899,52.994899 0 0 1 0.69247,2.785347 52.994899,52.994899 0 0 1 0.54134,2.818441 52.994899,52.994899 0 0 1 0.38711,2.84332 52.994899,52.994899 0 0 1 0.23288,2.86089 52.994899,52.994899 0 0 1 0.0777,2.86917 52.994899,52.994899 0 0 1 -0.65209,8.28978 52.994899,52.994899 0 0 1 -1.94176,8.0869 52.994899,52.994899 0 0 1 -3.18178,7.68218 52.994899,52.994899 0 0 1 -4.34515,7.09118 52.994899,52.994899 0 0 1 -5.40094,6.32316 52.994899,52.994899 0 0 1 -6.32315,5.40093 52.994899,52.994899 0 0 1 -7.09119,4.34515 52.994899,52.994899 0 0 1 -7.68218,3.18177 52.994899,52.994899 0 0 1 -8.0869,1.94177 52.994899,52.994899 0 0 1 -8.28977,0.65208 52.994899,52.994899 0 0 1 -8.289762,-0.65208 52.994899,52.994899 0 0 1 -8.086902,-1.94177 52.994899,52.994899 0 0 1 -7.68219,-3.18177 52.994899,52.994899 0 0 1 -7.091172,-4.34515 52.994899,52.994899 0 0 1 -6.323161,-5.40093 52.994899,52.994899 0 0 1 -5.400924,-6.32316 52.994899,52.994899 0 0 1 -4.345169,-7.09118 52.994899,52.994899 0 0 1 -3.181765,-7.68218 52.994899,52.994899 0 0 1 -1.941764,-8.0869 52.994899,52.994899 0 0 1 -0.652087,-8.28978 52.994899,52.994899 0 0 1 0.652087,-8.289761 52.994899,52.994899 0 0 1 1.941764,-8.086902 52.994899,52.994899 0 0 1 3.181765,-7.682191 52.994899,52.994899 0 0 1 4.345169,-7.091172 52.994899,52.994899 0 0 1 5.400924,-6.32316 52.994899,52.994899 0 0 1 6.323161,-5.400925 52.994899,52.994899 0 0 1 7.091172,-4.345168 52.994899,52.994899 0 0 1 7.68219,-3.181765 52.994899,52.994899 0 0 1 8.086902,-1.941764 52.994899,52.994899 0 0 1 8.289762,-0.652087 z"
       style="fill:#1a1a1a;stroke-width:0.529948"
       id="path9" />
    <path
       d="m 105.83332,13.092261 a 92.741068,92.741068 0 0 0 -13.197996,0.943972 92.741068,92.741068 0 0 0 -12.929925,2.812249 92.741068,92.741068 0 0 0 -12.39791,4.624633 92.741068,92.741068 0 0 0 -11.613333,6.341792 92.741068,92.741068 0 0 0 -10.593805,7.929567 92.741068,92.741068 0 0 0 -9.355877,9.355877 92.741068,92.741068 0 0 0 -7.929567,10.593805 92.741068,92.741068 0 0 0 -6.341792,11.613333 92.741068,92.741068 0 0 0 -4.624633,12.39791 92.741068,92.741068 0 0 0 -2.812249,12.929925 92.741068,92.741068 0 0 0 -0.943972,13.197996 92.741068,92.741068 0 0 0 0.943972,13.19803 92.741068,92.741068 0 0 0 2.812249,12.92992 92.741068,92.741068 0 0 0 4.624633,12.39791 92.741068,92.741068 0 0 0 6.341792,11.61332 92.741068,92.741068 0 0 0 7.929567,10.59382 92.741068,92.741068 0 0 0 9.355877,9.35587 92.741068,92.741068 0 0 0 10.593805,7.92957 92.741068,92.741068 0 0 0 11.613333,6.3418 92.741068,92.741068 0 0 0 12.39791,4.62462 92.741068,92.741068 0 0 0 12.929925,2.81226 92.741068,92.741068 0 0 0 13.197996,0.94397 92.741068,92.741068 0 0 0 13.19803,-0.94397 92.741068,92.741068 0 0 0 12.92992,-2.81226 92.741068,92.741068 0 0 0 12.39791,-4.62462 92.741068,92.741068 0 0 0 11.61332,-6.3418 92.741068,92.741068 0 0 0 10.59382,-7.92957 92.741068,92.741068 0 0 0 9.35587,-9.35587 92.741068,92.741068 0 0 0 7.92957,-10.59382 92.741068,92.741068 0 0 0 6.3418,-11.61332 92.741068,92.741068 0 0 0 4.62462,-12.39791 92.741068,92.741068 0 0 0 2.81226,-12.92992 92.741068,92.741068 0 0 0 0.94397,-13.19803 92.741068,92.741068 0 0 0 -0.11177,-4.55009 92.741068,92.741068 0 0 0 -0.33433,-4.539763 92.741068,92.741068 0 0 0 -0.55788,-4.518024 92.741068,92.741068 0 0 0 -0.77837,-4.4849 92.741068,92.741068 0 0 0 -0.99677,-4.441429 92.741068,92.741068 0 0 0 -1.21412,-4.386569 92.741068,92.741068 0 0 0 -1.42836,-4.322397 92.741068,92.741068 0 0 0 -1.63748,-4.246837 92.741068,92.741068 0 0 0 -1.84551,-4.161962 92.741068,92.741068 0 0 0 -2.0463,-4.065702 92.741068,92.741068 0 0 0 -2.24297,-3.961161 92.741068,92.741068 0 0 0 -2.43547,-3.845237 92.741068,92.741068 0 0 0 -2.62181,-3.722062 92.741068,92.741068 0 0 0 -2.79984,-3.588541 92.741068,92.741068 0 0 0 -2.97371,-3.446741 92.741068,92.741068 0 0 0 -3.13829,-3.296654 92.741068,92.741068 0 0 0 -3.29665,-3.138291 92.741068,92.741068 0 0 0 -3.44674,-2.973718 92.741068,92.741068 0 0 0 -3.58854,-2.799829 92.741068,92.741068 0 0 0 -3.72208,-2.621798 92.741068,92.741068 0 0 0 -3.84521,-2.434452 92.741068,92.741068 0 0 0 -3.96117,-2.244002 92.741068,92.741068 0 0 0 -4.0657,-2.046309 92.741068,92.741068 0 0 0 -4.16196,-1.845504 92.741068,92.741068 0 0 0 -4.24685,-1.63746 92.741068,92.741068 0 0 0 -4.32136,-1.428378 92.741068,92.741068 0 0 0 -4.3876,-1.214122 92.741068,92.741068 0 0 0 -4.44144,-0.99676 92.741068,92.741068 0 0 0 -4.4849,-0.778363 92.741068,92.741068 0 0 0 -4.51801,-0.557895 92.741068,92.741068 0 0 0 -4.53976,-0.334322 92.741068,92.741068 0 0 0 -4.55011,-0.111785 z m 0,13.248724 a 79.492346,79.492346 0 0 1 4.30378,0.116972 79.492346,79.492346 0 0 1 4.29133,0.348813 79.492346,79.492346 0 0 1 4.26548,0.581703 79.492346,79.492346 0 0 1 4.2282,0.811484 79.492346,79.492346 0 0 1 4.17749,1.038163 79.492346,79.492346 0 0 1 4.11539,1.263803 79.492346,79.492346 0 0 1 4.04189,1.485307 79.492346,79.492346 0 0 1 3.95392,1.700596 79.492346,79.492346 0 0 1 3.85765,1.912786 79.492346,79.492346 0 0 1 3.74795,2.118762 79.492346,79.492346 0 0 1 3.62684,2.31956 79.492346,79.492346 0 0 1 3.49642,2.511048 79.492346,79.492346 0 0 1 3.35565,2.697356 79.492346,79.492346 0 0 1 3.20453,2.875389 79.492346,79.492346 0 0 1 3.0441,3.044102 79.492346,79.492346 0 0 1 2.8754,3.204534 79.492346,79.492346 0 0 1 2.69734,3.355654 79.492346,79.492346 0 0 1 2.51209,3.496421 79.492346,79.492346 0 0 1 2.31852,3.626838 79.492346,79.492346 0 0 1 2.11877,3.747941 79.492346,79.492346 0 0 1 1.91279,3.857654 79.492346,79.492346 0 0 1 1.70059,3.953917 79.492346,79.492346 0 0 1 1.48531,4.041897 79.492346,79.492346 0 0 1 1.2638,4.115385 79.492346,79.492346 0 0 1 1.03816,4.177487 79.492346,79.492346 0 0 1 0.81149,4.228207 79.492346,79.492346 0 0 1 0.5817,4.265463 79.492346,79.492346 0 0 1 0.34882,4.291353 79.492346,79.492346 0 0 1 0.11697,4.30376 79.492346,79.492346 0 0 1 -0.97916,12.43517 79.492346,79.492346 0 0 1 -2.9116,12.12983 79.492346,79.492346 0 0 1 -4.77369,11.52329 79.492346,79.492346 0 0 1 -6.51672,10.63624 79.492346,79.492346 0 0 1 -8.10138,9.48526 79.492346,79.492346 0 0 1 -9.48526,8.10138 79.492346,79.492346 0 0 1 -10.63624,6.51672 79.492346,79.492346 0 0 1 -11.52329,4.77369 79.492346,79.492346 0 0 1 -12.12983,2.9116 79.492346,79.492346 0 0 1 -12.43517,0.97916 79.492346,79.492346 0 0 1 -12.435168,-0.97916 79.492346,79.492346 0 0 1 -12.129828,-2.9116 79.492346,79.492346 0 0 1 -11.523286,-4.77369 79.492346,79.492346 0 0 1 -10.636241,-6.51672 79.492346,79.492346 0 0 1 -9.485259,-8.10138 79.492346,79.492346 0 0 1 -8.101387,-9.48526 79.492346,79.492346 0 0 1 -6.516718,-10.63624 79.492346,79.492346 0 0 1 -4.773681,-11.52329 79.492346,79.492346 0 0 1 -2.911614,-12.12983 79.492346,79.492346 0 0 1 -0.979163,-12.43518 79.492346,79.492346 0 0 1 0.979163,-12.435158 79.492346,79.492346 0 0 1 2.911614,-12.128794 79.492346,79.492346 0 0 1 4.773681,-11.52432 79.492346,79.492346 0 0 1 6.516718,-10.636241 79.492346,79.492346 0 0 1 8.101387,-9.485259 79.492346,79.492346 0 0 1 9.485259,-8.100353 79.492346,79.492346 0 0 1 10.636241,-6.517752 79.492346,79.492346 0 0 1 11.523286,-4.773681 79.492346,79.492346 0 0 1 12.129828,-2.911614 79.492346,79.492346 0 0 1 12.435168,-0.979163 z"
       style="fill:#1a1a1a;stroke-width:0.529948"
       id="path6" />
  </g>
</svg>
