<svg width="800" height="600" xmlns="http://www.w3.org/2000/svg">
 <g>
  <title>Layer 1</title>
  <g id="svg_1">
   <g id="svg_2">
    <g id="svg_3">
     <g id="svg_4">
      <path id="svg_5" d="m640.02909,368.46568l-78.937,-45.574c-15.933,-9.199 -35.929,2.313 -35.929,20.743l0,27.074l-35.651,0c-60.107,0 -77.252,-48.206 -95.214,-83.543c17.185,-33.807 34.341,-83.542 95.214,-83.542l35.651,0l0,27.074c0,18.399 19.97,29.958 35.929,20.743l78.937,-45.573c15.935,-9.199 15.96,-32.273 0,-41.488l-78.937,-45.574c-15.938,-9.203 -35.929,2.318 -35.929,20.743l0,27.062l-35.651,0c-46.54,0 -88.552,25.772 -109.641,67.258l-6.333,12.459l-6.329,-12.453c-21.089,-41.487 -63.101,-67.259 -109.641,-67.259l-99.072,0c-10.221,0 -18.507,8.286 -18.507,18.506s8.286,18.507 18.507,18.507l99.072,0c60.107,0 77.261,48.227 95.21,83.536c-17.939,35.288 -35.005,83.536 -95.21,83.536c-10.221,0 -18.507,8.286 -18.507,18.507s8.286,18.507 18.507,18.507c46.54,0 88.552,-25.772 109.641,-67.259l6.329,-12.453l6.333,12.459c21.089,41.487 63.101,67.258 109.641,67.258l35.651,0l0,27.062c0,18.404 19.972,29.957 35.929,20.743l78.937,-45.574c15.933,-9.197 15.96,-32.27 0,-41.485z"/>
      <path id="svg_6" d="m193.48509,370.70368l-34.99,0c-10.22,0 -18.506,8.286 -18.506,18.507s8.286,18.507 18.507,18.507l34.99,0c10.221,0 18.507,-8.286 18.507,-18.507s-8.286,-18.507 -18.508,-18.507z"/>
     </g>
    </g>
   </g>
  </g>
  <rect stroke-width="0" id="svg_7" height="35" width="76" y="371.16608" x="183.4894" stroke="#fff" fill="#000"/>
  <path stroke="#fff" id="svg_9" d="m164.15759,370.70579l99.0618,0l0,37.0312l-99.0618,0l0,-37.0312z" opacity="undefined" stroke-width="0" fill="#000"/>
 </g>

</svg>